<?xml version="1.0" standalone="no"?><!DOCTYPE svg PUBLIC "-//W3C//DTD SVG 1.1//EN" "http://www.w3.org/Graphics/SVG/1.1/DTD/svg11.dtd"><svg t="1561444999985" class="icon" viewBox="0 0 1024 1024" version="1.1" xmlns="http://www.w3.org/2000/svg" p-id="14454" xmlns:xlink="http://www.w3.org/1999/xlink" width="200" height="200"><defs><style type="text/css"></style></defs><path d="M735.744 0H287.744C235.008 0 192 43.008 192 95.744v832c0 52.736 43.008 95.744 95.744 95.744h448c52.736 0 95.744-43.008 95.744-95.744V96.256C832 43.008 788.992 0 735.744 0z m-312.32 48.64h176.64c8.704 0 15.872 7.168 15.872 15.872 0 8.704-7.168 15.872-15.872 15.872H423.424c-8.704 0-15.872-7.168-15.872-15.872s7.168-15.872 15.872-15.872z m88.576 911.36c-35.328 0-64-28.672-64-64s28.672-64 64-64 64 28.672 64 64-28.672 64-64 64z m256-192H256V128h512v640z" fill="#1296db" p-id="14455"></path><path d="M625.152 476.672v-17.408c0-44.544 44.032-72.192 44.032-72.192-23.04-32.768-74.24-34.304-74.24-34.304-23.552 0.512-46.592 6.656-67.072 17.408-17.408 6.656-26.112 0-26.112 0-16.384-10.752-35.84-16.896-55.808-16.896C346.112 353.28 343.04 466.432 343.04 466.432c2.048 62.464 31.232 121.856 81.408 164.864 24.576 20.992 62.976 0 62.976 0 15.872-10.752 37.376-13.312 55.808-7.168 48.64 26.624 70.144 7.168 70.144 7.168 51.712-32.768 67.584-92.672 67.584-92.672-58.368-25.6-55.808-61.952-55.808-61.952z m-29.696-216.064c-50.176 4.608-88.064 43.52-85.504 89.088 93.696-6.144 85.504-89.088 85.504-89.088z" fill="#1296db" p-id="14456"></path></svg>