<?xml version="1.0" standalone="no"?><!DOCTYPE svg PUBLIC "-//W3C//DTD SVG 1.1//EN" "http://www.w3.org/Graphics/SVG/1.1/DTD/svg11.dtd"><svg t="1561444936162" class="icon" viewBox="0 0 1024 1024" version="1.1" xmlns="http://www.w3.org/2000/svg" p-id="11858" xmlns:xlink="http://www.w3.org/1999/xlink" width="200" height="200"><defs><style type="text/css"></style></defs><path d="M148.307498 331.380347c-34.338783 0-62.108408 28.281507-62.108408 63.132173v264.685899c0 34.893322 27.854938 63.132173 62.108408 63.132173 34.296126 0 62.065751-28.23885 62.06575-63.132173V394.555177c0-34.893322-27.726968-63.174829-62.06575-63.17483z m86.08157 421.961792c0 37.324764 29.731841 67.483174 66.288781 67.483173h45.216286v139.999859c0 34.893322 27.854938 63.174829 62.065751 63.174829 34.338783 0 62.065751-28.281507 62.065751-63.174829v-139.957202h83.863413v139.914545c0 34.935979 27.812281 63.217486 62.06575 63.217486 34.296126 0 62.065751-28.281507 62.065751-63.174829v-139.957202h45.216286c36.55694 0 66.288781-30.201066 66.288781-67.52583V343.238958H234.389068v410.103181zM649.099191 93.653592L692.438574 13.245386a8.744659 8.744659 0 0 0-3.41255-11.943925 8.531375 8.531375 0 0 0-11.687983 3.540521L633.486775 85.975355A294.758995 294.758995 0 0 0 512 60.12529c-43.510011 0-84.71655 9.299198-121.486775 25.807408L346.661959 4.841982a8.531375 8.531375 0 0 0-11.645327-3.497864 8.744659 8.744659 0 0 0-3.412549 11.901268l43.296726 80.365549C289.800347 138.443309 232.213568 223.586428 232.213568 321.270668h559.444894c0.127971-97.769554-57.458808-182.870016-142.559271-227.659733zM384.71189 218.211662a23.674565 23.674565 0 0 1-23.46128-23.887849c0-13.223631 10.536248-23.887849 23.46128-23.887849 12.96769 0 23.46128 10.664218 23.46128 23.887849a23.802535 23.802535 0 0 1-23.46128 23.887849z m254.661534 0a23.674565 23.674565 0 0 1-23.46128-23.887849c0-13.223631 10.536248-23.887849 23.46128-23.887849 12.96769 0 23.46128 10.664218 23.46128 23.887849a23.802535 23.802535 0 0 1-23.46128 23.887849z m236.319078 113.211342c-34.296126 0-62.065751 28.281507-62.06575 63.132173v264.685899c0 34.893322 27.854938 63.132173 62.06575 63.132172 34.338783 0 62.108408-28.23885 62.108408-63.132172V394.555177c0-34.893322-27.769625-63.174829-62.108408-63.17483z" fill="#1afa29" p-id="11859"></path></svg>